<svg xmlns="http://www.w3.org/2000/svg" xmlns:xlink="http://www.w3.org/1999/xlink" width="500" zoomAndPan="magnify" viewBox="0 0 375 374.999991" height="500" preserveAspectRatio="xMidYMid meet" version="1.0"><defs><g/></defs><path fill="#325671" d="M 62.355469 164.125 C 48.710938 183.472656 66.378906 201.054688 82.726562 214.414062 C 97.449219 226.433594 95.09375 247.628906 80.59375 244.179688 C 73.832031 242.574219 67.738281 239.429688 62.824219 235.285156 C 40.972656 216.871094 38.3125 179.757812 62.355469 164.125 " fill-opacity="1" fill-rule="evenodd"/><path fill="#325671" d="M 135.632812 190.621094 C 149.28125 171.273438 131.609375 153.691406 115.261719 140.332031 C 100.539062 128.292969 102.894531 107.117188 117.394531 110.566406 C 124.15625 112.171875 130.25 115.320312 135.164062 119.460938 C 157.015625 137.875 159.679688 174.988281 135.632812 190.621094 " fill-opacity="1" fill-rule="evenodd"/><path fill="#5ab0cd" d="M 65.546875 238.472656 C 65.300781 238.289062 65.078125 238.085938 64.835938 237.886719 C 50.558594 228.324219 40.929688 206.214844 44.097656 187.3125 C 47.105469 169.464844 61.261719 156.65625 78.136719 154.402344 C 90.789062 152.714844 104.640625 161.589844 112.703125 156.429688 C 118.328125 152.816406 116.644531 144.859375 110.347656 141.101562 C 103.585938 137.082031 89.652344 139.519531 77.367188 143.09375 C 57.96875 148.738281 58.03125 139.457031 68.996094 136.007812 C 79.355469 132.757812 84.433594 137.652344 91.582031 137.203125 C 102.894531 136.496094 101.960938 125.855469 93.1875 124.496094 C 70.441406 121.023438 37.984375 137.46875 31.730469 161.710938 C 27.75 178.359375 29.902344 196.507812 39.144531 212.507812 C 45.683594 223.792969 54.902344 232.566406 65.546875 238.472656 " fill-opacity="1" fill-rule="evenodd"/><path fill="#5ab0cd" d="M 29.476562 178.460938 C 27.890625 160.066406 32.582031 152.308594 32.339844 138.769531 C 32.277344 134.6875 31.019531 131.925781 29.089844 128.839844 C 24.746094 121.875 33.375 113.574219 39.226562 122.910156 C 41.703125 126.871094 42.414062 131.113281 40.421875 135.582031 C 38.085938 140.820312 29.234375 157.183594 29.476562 178.460938 " fill-opacity="1" fill-rule="evenodd"/><path fill="#5ab0cd" d="M 42.980469 134.726562 C 43.105469 134.34375 48.039062 127.214844 50.292969 120.558594 C 51.492188 116.984375 50.902344 114.710938 51.652344 112.007812 C 53.421875 105.796875 63.472656 107.441406 59.613281 114.832031 C 58.722656 116.535156 57.015625 118.730469 54.070312 121.613281 C 46.351562 129.144531 43.308594 134.34375 42.980469 134.726562 " fill-opacity="1" fill-rule="evenodd"/><path fill="#5ab0cd" d="M 33.84375 153.671875 C 42.089844 137.101562 61.199219 124.3125 78.625 123.035156 C 94.992188 121.816406 89.792969 111.867188 81.222656 112.234375 C 75.089844 112.496094 69.628906 114.285156 64.367188 117.328125 C 54.597656 122.972656 46.71875 130.605469 40.949219 139.4375 C 38.1875 143.722656 36.035156 148.371094 33.925781 153.445312 Z M 33.84375 153.671875 " fill-opacity="1" fill-rule="evenodd"/><path fill="#5ab0cd" d="M 132.445312 116.273438 C 132.6875 116.457031 132.910156 116.660156 133.15625 116.863281 C 147.429688 126.425781 157.058594 148.535156 153.890625 167.433594 C 150.882812 185.28125 136.730469 198.09375 119.851562 200.34375 C 107.199219 202.03125 93.347656 193.160156 85.285156 198.316406 C 79.660156 201.929688 81.347656 209.886719 87.640625 213.644531 C 94.40625 217.664062 108.335938 215.226562 120.625 211.652344 C 140.019531 206.011719 139.957031 215.289062 128.992188 218.738281 C 118.632812 221.988281 113.554688 217.09375 106.40625 217.542969 C 95.09375 218.253906 96.03125 228.890625 104.804688 230.25 C 127.527344 233.761719 159.984375 217.320312 166.238281 193.078125 C 170.21875 176.429688 168.066406 158.277344 158.824219 142.28125 C 152.304688 130.953125 143.085938 122.179688 132.445312 116.273438 " fill-opacity="1" fill-rule="evenodd"/><path fill="#5ab0cd" d="M 168.511719 176.285156 C 170.097656 194.679688 165.40625 202.4375 165.648438 216 C 165.710938 220.078125 166.96875 222.839844 168.898438 225.925781 C 173.246094 232.890625 164.613281 241.195312 158.765625 231.855469 C 156.285156 227.894531 155.574219 223.652344 157.566406 219.1875 C 159.902344 213.929688 168.757812 197.5625 168.511719 176.285156 " fill-opacity="1" fill-rule="evenodd"/><path fill="#5ab0cd" d="M 155.007812 220.039062 C 154.886719 220.425781 149.949219 227.550781 147.695312 234.210938 C 146.496094 237.785156 147.085938 240.058594 146.335938 242.757812 C 144.566406 248.96875 134.515625 247.324219 138.375 239.933594 C 139.265625 238.230469 140.972656 236.039062 143.917969 233.15625 C 151.636719 225.601562 154.683594 220.40625 155.007812 220.039062 " fill-opacity="1" fill-rule="evenodd"/><path fill="#5ab0cd" d="M 164.144531 201.078125 C 155.902344 217.644531 136.789062 230.433594 119.363281 231.710938 C 102.996094 232.929688 108.195312 242.878906 116.765625 242.515625 C 122.898438 242.25 128.363281 240.464844 133.621094 237.417969 C 143.390625 231.773438 151.269531 224.140625 157.039062 215.308594 C 159.800781 211.023438 161.953125 206.375 164.066406 201.300781 Z M 164.144531 201.078125 " fill-opacity="1" fill-rule="evenodd"/><path fill="#d5eefa" d="M 66.03125 117.898438 C 70.988281 115.378906 80.738281 111.703125 85.957031 114.648438 C 88.675781 116.191406 87.722656 117.347656 84.878906 116.515625 C 77.871094 114.507812 72.976562 115.828125 66.03125 117.898438 " fill-opacity="1" fill-rule="evenodd"/><path fill="#d5eefa" d="M 76.9375 126.6875 C 81.894531 125.390625 91.925781 124.535156 96.273438 127.945312 C 97.347656 128.777344 97.347656 129.125 97.144531 129.449219 C 96.921875 129.816406 96.355469 130.097656 95.054688 129.511719 C 88.941406 126.707031 83.539062 125.753906 76.9375 126.6875 " fill-opacity="1" fill-rule="evenodd"/><path fill="#d5eefa" d="M 51.980469 116.921875 C 52.058594 114.8125 51.917969 112.3125 53.21875 110.566406 C 53.582031 110.082031 54.070312 109.652344 54.699219 109.308594 C 56.265625 108.457031 57.238281 109.085938 56.183594 109.734375 C 53.054688 111.601562 52.75 113.308594 51.980469 116.921875 " fill-opacity="1" fill-rule="evenodd"/><path fill="#d5eefa" d="M 28.582031 124.476562 C 28.886719 121.695312 31.222656 119.09375 34.128906 119.601562 C 35.8125 119.90625 36.054688 121.164062 34.859375 121.003906 C 31.40625 120.558594 29.414062 121.613281 28.582031 124.476562 " fill-opacity="1" fill-rule="evenodd"/><path fill="#d5eefa" d="M 82.035156 144.085938 C 88.941406 141.570312 103.179688 139.050781 109.820312 143.355469 C 111.464844 144.414062 111.503906 144.898438 111.261719 145.40625 C 110.976562 145.976562 110.203125 146.441406 108.277344 145.753906 C 99.175781 142.542969 91.339844 141.894531 82.035156 144.085938 " fill-opacity="1" fill-rule="evenodd"/><path fill="#d5eefa" d="M 131.957031 236.847656 C 127 239.367188 117.253906 243.042969 112.03125 240.097656 C 109.3125 238.554688 110.265625 237.398438 113.109375 238.230469 C 120.117188 240.238281 125.011719 238.921875 131.957031 236.847656 " fill-opacity="1" fill-rule="evenodd"/><path fill="#d5eefa" d="M 121.050781 228.058594 C 116.09375 229.359375 106.0625 230.210938 101.714844 226.800781 C 100.640625 225.96875 100.640625 225.621094 100.84375 225.296875 C 101.066406 224.933594 101.632812 224.648438 102.933594 225.238281 C 109.046875 228.039062 114.449219 228.992188 121.050781 228.058594 " fill-opacity="1" fill-rule="evenodd"/><path fill="#d5eefa" d="M 146.011719 237.824219 C 145.929688 239.933594 146.070312 242.433594 144.769531 244.179688 C 144.40625 244.664062 143.917969 245.09375 143.289062 245.4375 C 141.726562 246.289062 140.75 245.660156 141.804688 245.011719 C 144.933594 243.144531 145.238281 241.4375 146.011719 237.824219 " fill-opacity="1" fill-rule="evenodd"/><path fill="#d5eefa" d="M 169.40625 230.269531 C 169.101562 233.054688 166.765625 235.652344 163.863281 235.144531 C 162.175781 234.839844 161.933594 233.582031 163.128906 233.742188 C 166.582031 234.191406 168.574219 233.132812 169.40625 230.269531 " fill-opacity="1" fill-rule="evenodd"/><path fill="#d5eefa" d="M 115.953125 210.660156 C 109.046875 213.175781 94.8125 215.695312 88.167969 211.390625 C 86.523438 210.335938 86.484375 209.847656 86.726562 209.339844 C 87.011719 208.769531 87.785156 208.304688 89.714844 208.996094 C 98.8125 212.203125 106.652344 212.851562 115.953125 210.660156 " fill-opacity="1" fill-rule="evenodd"/><g fill="#325671" fill-opacity="1"><g transform="translate(180.492319, 169.50601)"><g><path d="M 35.140625 0 L 27.640625 0 L 22.296875 -19.84375 L 16.890625 0 L 9.34375 0 L -0.046875 -28.703125 L 7.75 -28.703125 L 13.359375 -7.578125 L 18.859375 -28.703125 L 26 -28.703125 L 31.609375 -7.578125 L 37.140625 -28.703125 L 44.609375 -28.703125 Z M 35.140625 0 "/></g></g></g><g fill="#325671" fill-opacity="1"><g transform="translate(224.804881, 169.50601)"><g><path d="M 10.171875 0 L 2.875 0 L 2.875 -28.703125 L 10.171875 -28.703125 Z M 10.171875 0 "/></g></g></g><g fill="#325671" fill-opacity="1"><g transform="translate(237.840399, 169.50601)"><g><path d="M 10.171875 -6.109375 L 22.34375 -6.109375 L 22.34375 0 L 2.875 0 L 2.875 -28.703125 L 10.171875 -28.703125 Z M 10.171875 -6.109375 "/></g></g></g><g fill="#325671" fill-opacity="1"><g transform="translate(260.796032, 169.50601)"><g><path d="M 10.171875 -6.109375 L 22.34375 -6.109375 L 22.34375 0 L 2.875 0 L 2.875 -28.703125 L 10.171875 -28.703125 Z M 10.171875 -6.109375 "/></g></g></g><g fill="#325671" fill-opacity="1"><g transform="translate(283.751666, 169.50601)"><g><path d="M 10.171875 0 L 2.875 0 L 2.875 -28.703125 L 10.171875 -28.703125 Z M 10.171875 0 "/></g></g></g><g fill="#325671" fill-opacity="1"><g transform="translate(296.787184, 169.50601)"><g><path d="M 29.359375 0 L 22.921875 0 L 9.71875 -17.671875 L 9.71875 0 L 2.875 0 L 2.875 -28.703125 L 9.3125 -28.703125 L 22.546875 -10.984375 L 22.546875 -28.703125 L 29.359375 -28.703125 Z M 29.359375 0 "/></g></g></g><g fill="#325671" fill-opacity="1"><g transform="translate(329.00705, 169.50601)"><g><path d="M 21.9375 -14.59375 L 28.25 -14.59375 L 28.25 -3.40625 C 26.6875 -2.3125 24.804688 -1.414062 22.609375 -0.71875 C 20.410156 -0.0195312 18.3125 0.328125 16.3125 0.328125 C 11.945312 0.328125 8.300781 -1.070312 5.375 -3.875 C 2.445312 -6.675781 0.984375 -10.164062 0.984375 -14.34375 C 0.984375 -18.5 2.484375 -21.972656 5.484375 -24.765625 C 8.492188 -27.554688 12.269531 -28.953125 16.8125 -28.953125 C 18.945312 -28.953125 21.066406 -28.566406 23.171875 -27.796875 C 25.273438 -27.035156 27.0625 -26 28.53125 -24.6875 L 24.4375 -19.71875 C 23.394531 -20.675781 22.191406 -21.4375 20.828125 -22 C 19.460938 -22.5625 18.109375 -22.84375 16.765625 -22.84375 C 14.421875 -22.84375 12.445312 -22.023438 10.84375 -20.390625 C 9.25 -18.765625 8.453125 -16.75 8.453125 -14.34375 C 8.453125 -11.914062 9.253906 -9.878906 10.859375 -8.234375 C 12.472656 -6.597656 14.46875 -5.78125 16.84375 -5.78125 C 18.375 -5.78125 20.070312 -6.242188 21.9375 -7.171875 Z M 21.9375 -14.59375 "/></g></g></g><g fill="#5ab0cd" fill-opacity="1"><g transform="translate(183.80521, 199.746344)"><g><path d="M 0.859375 -6.984375 C 0.859375 -8.335938 1.164062 -9.554688 1.78125 -10.640625 C 2.394531 -11.734375 3.226562 -12.585938 4.28125 -13.203125 C 5.34375 -13.816406 6.519531 -14.125 7.8125 -14.125 C 9.332031 -14.125 10.660156 -13.753906 11.796875 -13.015625 C 12.929688 -12.285156 13.757812 -11.25 14.28125 -9.90625 L 12.09375 -9.90625 C 11.707031 -10.738281 11.148438 -11.378906 10.421875 -11.828125 C 9.703125 -12.285156 8.832031 -12.515625 7.8125 -12.515625 C 6.84375 -12.515625 5.972656 -12.285156 5.203125 -11.828125 C 4.429688 -11.378906 3.820312 -10.738281 3.375 -9.90625 C 2.9375 -9.070312 2.71875 -8.097656 2.71875 -6.984375 C 2.71875 -5.867188 2.9375 -4.894531 3.375 -4.0625 C 3.820312 -3.226562 4.429688 -2.582031 5.203125 -2.125 C 5.972656 -1.675781 6.84375 -1.453125 7.8125 -1.453125 C 8.832031 -1.453125 9.703125 -1.675781 10.421875 -2.125 C 11.148438 -2.570312 11.707031 -3.21875 12.09375 -4.0625 L 14.28125 -4.0625 C 13.757812 -2.726562 12.929688 -1.695312 11.796875 -0.96875 C 10.660156 -0.238281 9.332031 0.125 7.8125 0.125 C 6.519531 0.125 5.34375 -0.175781 4.28125 -0.78125 C 3.226562 -1.394531 2.394531 -2.238281 1.78125 -3.3125 C 1.164062 -4.394531 0.859375 -5.617188 0.859375 -6.984375 Z M 0.859375 -6.984375 "/></g></g></g><g fill="#5ab0cd" fill-opacity="1"><g transform="translate(203.239113, 199.746344)"><g><path d="M 7.859375 0.140625 C 6.566406 0.140625 5.382812 -0.160156 4.3125 -0.765625 C 3.25 -1.378906 2.40625 -2.226562 1.78125 -3.3125 C 1.164062 -4.394531 0.859375 -5.617188 0.859375 -6.984375 C 0.859375 -8.335938 1.164062 -9.554688 1.78125 -10.640625 C 2.40625 -11.734375 3.25 -12.582031 4.3125 -13.1875 C 5.382812 -13.789062 6.566406 -14.09375 7.859375 -14.09375 C 9.160156 -14.09375 10.34375 -13.789062 11.40625 -13.1875 C 12.476562 -12.582031 13.320312 -11.738281 13.9375 -10.65625 C 14.550781 -9.582031 14.859375 -8.359375 14.859375 -6.984375 C 14.859375 -5.609375 14.550781 -4.378906 13.9375 -3.296875 C 13.320312 -2.222656 12.476562 -1.378906 11.40625 -0.765625 C 10.34375 -0.160156 9.160156 0.140625 7.859375 0.140625 Z M 7.859375 -1.4375 C 8.828125 -1.4375 9.703125 -1.660156 10.484375 -2.109375 C 11.265625 -2.566406 11.878906 -3.210938 12.328125 -4.046875 C 12.773438 -4.890625 13 -5.867188 13 -6.984375 C 13 -8.097656 12.773438 -9.070312 12.328125 -9.90625 C 11.878906 -10.738281 11.269531 -11.378906 10.5 -11.828125 C 9.726562 -12.285156 8.847656 -12.515625 7.859375 -12.515625 C 6.867188 -12.515625 5.988281 -12.285156 5.21875 -11.828125 C 4.445312 -11.378906 3.835938 -10.738281 3.390625 -9.90625 C 2.941406 -9.070312 2.71875 -8.097656 2.71875 -6.984375 C 2.71875 -5.867188 2.941406 -4.890625 3.390625 -4.046875 C 3.835938 -3.210938 4.453125 -2.566406 5.234375 -2.109375 C 6.015625 -1.660156 6.890625 -1.4375 7.859375 -1.4375 Z M 7.859375 -1.4375 "/></g></g></g><g fill="#5ab0cd" fill-opacity="1"><g transform="translate(222.952905, 199.746344)"><g><path d="M 12.5 0 L 10.6875 0 L 3.359375 -11.09375 L 3.359375 0 L 1.546875 0 L 1.546875 -13.953125 L 3.359375 -13.953125 L 10.6875 -2.875 L 10.6875 -13.953125 L 12.5 -13.953125 Z M 12.5 0 "/></g></g></g><g fill="#5ab0cd" fill-opacity="1"><g transform="translate(241.007349, 199.746344)"><g><path d="M 5.953125 0.140625 C 5.035156 0.140625 4.210938 -0.0195312 3.484375 -0.34375 C 2.765625 -0.675781 2.195312 -1.128906 1.78125 -1.703125 C 1.363281 -2.285156 1.148438 -2.957031 1.140625 -3.71875 L 3.078125 -3.71875 C 3.148438 -3.0625 3.421875 -2.507812 3.890625 -2.0625 C 4.359375 -1.625 5.046875 -1.40625 5.953125 -1.40625 C 6.828125 -1.40625 7.515625 -1.617188 8.015625 -2.046875 C 8.515625 -2.484375 8.765625 -3.039062 8.765625 -3.71875 C 8.765625 -4.25 8.613281 -4.679688 8.3125 -5.015625 C 8.019531 -5.347656 7.65625 -5.601562 7.21875 -5.78125 C 6.78125 -5.957031 6.1875 -6.144531 5.4375 -6.34375 C 4.519531 -6.582031 3.785156 -6.820312 3.234375 -7.0625 C 2.679688 -7.300781 2.207031 -7.675781 1.8125 -8.1875 C 1.414062 -8.695312 1.21875 -9.390625 1.21875 -10.265625 C 1.21875 -11.023438 1.410156 -11.695312 1.796875 -12.28125 C 2.179688 -12.863281 2.722656 -13.316406 3.421875 -13.640625 C 4.128906 -13.960938 4.9375 -14.125 5.84375 -14.125 C 7.144531 -14.125 8.210938 -13.796875 9.046875 -13.140625 C 9.878906 -12.484375 10.347656 -11.617188 10.453125 -10.546875 L 8.453125 -10.546875 C 8.390625 -11.078125 8.109375 -11.546875 7.609375 -11.953125 C 7.117188 -12.359375 6.46875 -12.5625 5.65625 -12.5625 C 4.894531 -12.5625 4.273438 -12.363281 3.796875 -11.96875 C 3.316406 -11.570312 3.078125 -11.019531 3.078125 -10.3125 C 3.078125 -9.8125 3.21875 -9.398438 3.5 -9.078125 C 3.789062 -8.753906 4.144531 -8.507812 4.5625 -8.34375 C 4.988281 -8.175781 5.582031 -7.988281 6.34375 -7.78125 C 7.257812 -7.53125 8 -7.28125 8.5625 -7.03125 C 9.125 -6.78125 9.601562 -6.398438 10 -5.890625 C 10.394531 -5.378906 10.59375 -4.679688 10.59375 -3.796875 C 10.59375 -3.117188 10.410156 -2.476562 10.046875 -1.875 C 9.691406 -1.28125 9.160156 -0.796875 8.453125 -0.421875 C 7.753906 -0.046875 6.921875 0.140625 5.953125 0.140625 Z M 5.953125 0.140625 "/></g></g></g><g fill="#5ab0cd" fill-opacity="1"><g transform="translate(256.742705, 199.746344)"><g><path d="M 3.3125 -13.9375 L 3.3125 -5.125 C 3.3125 -3.882812 3.613281 -2.960938 4.21875 -2.359375 C 4.832031 -1.753906 5.679688 -1.453125 6.765625 -1.453125 C 7.828125 -1.453125 8.660156 -1.753906 9.265625 -2.359375 C 9.878906 -2.960938 10.1875 -3.882812 10.1875 -5.125 L 10.1875 -13.9375 L 12 -13.9375 L 12 -5.140625 C 12 -3.984375 11.765625 -3.003906 11.296875 -2.203125 C 10.828125 -1.410156 10.195312 -0.820312 9.40625 -0.4375 C 8.613281 -0.0507812 7.722656 0.140625 6.734375 0.140625 C 5.753906 0.140625 4.863281 -0.0507812 4.0625 -0.4375 C 3.269531 -0.820312 2.644531 -1.410156 2.1875 -2.203125 C 1.726562 -3.003906 1.5 -3.984375 1.5 -5.140625 L 1.5 -13.9375 Z M 3.3125 -13.9375 "/></g></g></g><g fill="#5ab0cd" fill-opacity="1"><g transform="translate(274.237373, 199.746344)"><g><path d="M 3.359375 -1.484375 L 8.234375 -1.484375 L 8.234375 0 L 1.546875 0 L 1.546875 -13.9375 L 3.359375 -13.9375 Z M 3.359375 -1.484375 "/></g></g></g><g fill="#5ab0cd" fill-opacity="1"><g transform="translate(286.873955, 199.746344)"><g><path d="M 10.125 -13.9375 L 10.125 -12.453125 L 6.3125 -12.453125 L 6.3125 0 L 4.5 0 L 4.5 -12.453125 L 0.6875 -12.453125 L 0.6875 -13.9375 Z M 10.125 -13.9375 "/></g></g></g><g fill="#5ab0cd" fill-opacity="1"><g transform="translate(301.68967, 199.746344)"><g><path d="M 3.359375 -13.9375 L 3.359375 0 L 1.546875 0 L 1.546875 -13.9375 Z M 3.359375 -13.9375 "/></g></g></g><g fill="#5ab0cd" fill-opacity="1"><g transform="translate(310.607719, 199.746344)"><g><path d="M 12.5 0 L 10.6875 0 L 3.359375 -11.09375 L 3.359375 0 L 1.546875 0 L 1.546875 -13.953125 L 3.359375 -13.953125 L 10.6875 -2.875 L 10.6875 -13.953125 L 12.5 -13.953125 Z M 12.5 0 "/></g></g></g><g fill="#5ab0cd" fill-opacity="1"><g transform="translate(328.662157, 199.746344)"><g><path d="M 12.09375 -9.90625 C 11.707031 -10.71875 11.144531 -11.34375 10.40625 -11.78125 C 9.675781 -12.226562 8.828125 -12.453125 7.859375 -12.453125 C 6.890625 -12.453125 6.015625 -12.226562 5.234375 -11.78125 C 4.453125 -11.34375 3.835938 -10.707031 3.390625 -9.875 C 2.941406 -9.039062 2.71875 -8.078125 2.71875 -6.984375 C 2.71875 -5.890625 2.941406 -4.925781 3.390625 -4.09375 C 3.835938 -3.269531 4.453125 -2.632812 5.234375 -2.1875 C 6.015625 -1.738281 6.890625 -1.515625 7.859375 -1.515625 C 9.222656 -1.515625 10.34375 -1.921875 11.21875 -2.734375 C 12.101562 -3.546875 12.617188 -4.648438 12.765625 -6.046875 L 7.203125 -6.046875 L 7.203125 -7.515625 L 14.703125 -7.515625 L 14.703125 -6.125 C 14.597656 -4.976562 14.238281 -3.925781 13.625 -2.96875 C 13.007812 -2.019531 12.203125 -1.265625 11.203125 -0.703125 C 10.203125 -0.148438 9.085938 0.125 7.859375 0.125 C 6.566406 0.125 5.382812 -0.175781 4.3125 -0.78125 C 3.25 -1.394531 2.40625 -2.238281 1.78125 -3.3125 C 1.164062 -4.394531 0.859375 -5.617188 0.859375 -6.984375 C 0.859375 -8.335938 1.164062 -9.554688 1.78125 -10.640625 C 2.40625 -11.734375 3.25 -12.582031 4.3125 -13.1875 C 5.382812 -13.789062 6.566406 -14.09375 7.859375 -14.09375 C 9.335938 -14.09375 10.644531 -13.726562 11.78125 -13 C 12.925781 -12.269531 13.757812 -11.238281 14.28125 -9.90625 Z M 12.09375 -9.90625 "/></g></g></g></svg>