<?xml version="1.0" encoding="utf-8"?>
<svg xmlns="http://www.w3.org/2000/svg" xmlns:xlink="http://www.w3.org/1999/xlink" width="672" height="480" viewBox="0 0 2688 1920">
<defs>
  <clipPath id="clip580">
    <rect x="0" y="0" width="2688" height="1920"/>
  </clipPath>
</defs>
<path clip-path="url(#clip580)" d="M0 1920 L2688 1920 L2688 0 L0 0  Z" fill="#ffffff" fill-rule="evenodd" fill-opacity="1"/>
<defs>
  <clipPath id="clip581">
    <rect x="537" y="0" width="1883" height="1883"/>
  </clipPath>
</defs>
<path clip-path="url(#clip580)" d="M196.816 1800.78 L2640.76 1800.78 L2640.76 47.2441 L196.816 47.2441  Z" fill="#ffffff" fill-rule="evenodd" fill-opacity="1"/>
<defs>
  <clipPath id="clip582">
    <rect x="196" y="47" width="2445" height="1755"/>
  </clipPath>
</defs>
<polyline clip-path="url(#clip582)" style="stroke:#000000; stroke-linecap:round; stroke-linejoin:round; stroke-width:2; stroke-opacity:0.1; fill:none" points="265.948,1800.78 265.948,47.2441 "/>
<polyline clip-path="url(#clip582)" style="stroke:#000000; stroke-linecap:round; stroke-linejoin:round; stroke-width:2; stroke-opacity:0.1; fill:none" points="842.367,1800.78 842.367,47.2441 "/>
<polyline clip-path="url(#clip582)" style="stroke:#000000; stroke-linecap:round; stroke-linejoin:round; stroke-width:2; stroke-opacity:0.1; fill:none" points="1418.79,1800.78 1418.79,47.2441 "/>
<polyline clip-path="url(#clip582)" style="stroke:#000000; stroke-linecap:round; stroke-linejoin:round; stroke-width:2; stroke-opacity:0.1; fill:none" points="1995.2,1800.78 1995.2,47.2441 "/>
<polyline clip-path="url(#clip582)" style="stroke:#000000; stroke-linecap:round; stroke-linejoin:round; stroke-width:2; stroke-opacity:0.1; fill:none" points="2571.62,1800.78 2571.62,47.2441 "/>
<polyline clip-path="url(#clip580)" style="stroke:#000000; stroke-linecap:round; stroke-linejoin:round; stroke-width:4; stroke-opacity:1; fill:none" points="196.816,1800.78 2640.76,1800.78 "/>
<polyline clip-path="url(#clip580)" style="stroke:#000000; stroke-linecap:round; stroke-linejoin:round; stroke-width:4; stroke-opacity:1; fill:none" points="265.948,1800.78 265.948,1781.88 "/>
<polyline clip-path="url(#clip580)" style="stroke:#000000; stroke-linecap:round; stroke-linejoin:round; stroke-width:4; stroke-opacity:1; fill:none" points="842.367,1800.78 842.367,1781.88 "/>
<polyline clip-path="url(#clip580)" style="stroke:#000000; stroke-linecap:round; stroke-linejoin:round; stroke-width:4; stroke-opacity:1; fill:none" points="1418.79,1800.78 1418.79,1781.88 "/>
<polyline clip-path="url(#clip580)" style="stroke:#000000; stroke-linecap:round; stroke-linejoin:round; stroke-width:4; stroke-opacity:1; fill:none" points="1995.2,1800.78 1995.2,1781.88 "/>
<polyline clip-path="url(#clip580)" style="stroke:#000000; stroke-linecap:round; stroke-linejoin:round; stroke-width:4; stroke-opacity:1; fill:none" points="2571.62,1800.78 2571.62,1781.88 "/>
<path clip-path="url(#clip580)" d="M212.476 1848.65 L242.152 1848.65 L242.152 1852.59 L212.476 1852.59 L212.476 1848.65 Z" fill="#000000" fill-rule="nonzero" fill-opacity="1" /><path clip-path="url(#clip580)" d="M253.055 1861.55 L260.694 1861.55 L260.694 1835.18 L252.383 1836.85 L252.383 1832.59 L260.647 1830.92 L265.323 1830.92 L265.323 1861.55 L272.962 1861.55 L272.962 1865.48 L253.055 1865.48 L253.055 1861.55 Z" fill="#000000" fill-rule="nonzero" fill-opacity="1" /><path clip-path="url(#clip580)" d="M282.406 1859.6 L287.291 1859.6 L287.291 1865.48 L282.406 1865.48 L282.406 1859.6 Z" fill="#000000" fill-rule="nonzero" fill-opacity="1" /><path clip-path="url(#clip580)" d="M307.476 1834 Q303.865 1834 302.036 1837.57 Q300.23 1841.11 300.23 1848.24 Q300.23 1855.34 302.036 1858.91 Q303.865 1862.45 307.476 1862.45 Q311.11 1862.45 312.916 1858.91 Q314.744 1855.34 314.744 1848.24 Q314.744 1841.11 312.916 1837.57 Q311.11 1834 307.476 1834 M307.476 1830.3 Q313.286 1830.3 316.341 1834.9 Q319.42 1839.49 319.42 1848.24 Q319.42 1856.96 316.341 1861.57 Q313.286 1866.15 307.476 1866.15 Q301.666 1866.15 298.587 1861.57 Q295.531 1856.96 295.531 1848.24 Q295.531 1839.49 298.587 1834.9 Q301.666 1830.3 307.476 1830.3 Z" fill="#000000" fill-rule="nonzero" fill-opacity="1" /><path clip-path="url(#clip580)" d="M789.393 1848.65 L819.069 1848.65 L819.069 1852.59 L789.393 1852.59 L789.393 1848.65 Z" fill="#000000" fill-rule="nonzero" fill-opacity="1" /><path clip-path="url(#clip580)" d="M839.161 1834 Q835.55 1834 833.721 1837.57 Q831.916 1841.11 831.916 1848.24 Q831.916 1855.34 833.721 1858.91 Q835.55 1862.45 839.161 1862.45 Q842.795 1862.45 844.601 1858.91 Q846.43 1855.34 846.43 1848.24 Q846.43 1841.11 844.601 1837.57 Q842.795 1834 839.161 1834 M839.161 1830.3 Q844.971 1830.3 848.027 1834.9 Q851.105 1839.49 851.105 1848.24 Q851.105 1856.96 848.027 1861.57 Q844.971 1866.15 839.161 1866.15 Q833.351 1866.15 830.272 1861.57 Q827.217 1856.96 827.217 1848.24 Q827.217 1839.49 830.272 1834.9 Q833.351 1830.3 839.161 1830.3 Z" fill="#000000" fill-rule="nonzero" fill-opacity="1" /><path clip-path="url(#clip580)" d="M859.323 1859.6 L864.207 1859.6 L864.207 1865.48 L859.323 1865.48 L859.323 1859.6 Z" fill="#000000" fill-rule="nonzero" fill-opacity="1" /><path clip-path="url(#clip580)" d="M874.439 1830.92 L892.795 1830.92 L892.795 1834.86 L878.721 1834.86 L878.721 1843.33 Q879.74 1842.98 880.758 1842.82 Q881.777 1842.64 882.795 1842.64 Q888.582 1842.64 891.962 1845.81 Q895.341 1848.98 895.341 1854.4 Q895.341 1859.97 891.869 1863.08 Q888.397 1866.15 882.078 1866.15 Q879.902 1866.15 877.633 1865.78 Q875.388 1865.41 872.98 1864.67 L872.98 1859.97 Q875.064 1861.11 877.286 1861.66 Q879.508 1862.22 881.985 1862.22 Q885.99 1862.22 888.327 1860.11 Q890.665 1858.01 890.665 1854.4 Q890.665 1850.78 888.327 1848.68 Q885.99 1846.57 881.985 1846.57 Q880.11 1846.57 878.235 1846.99 Q876.383 1847.4 874.439 1848.28 L874.439 1830.92 Z" fill="#000000" fill-rule="nonzero" fill-opacity="1" /><path clip-path="url(#clip580)" d="M1396.17 1834 Q1392.56 1834 1390.73 1837.57 Q1388.93 1841.11 1388.93 1848.24 Q1388.93 1855.34 1390.73 1858.91 Q1392.56 1862.45 1396.17 1862.45 Q1399.8 1862.45 1401.61 1858.91 Q1403.44 1855.34 1403.44 1848.24 Q1403.44 1841.11 1401.61 1837.57 Q1399.8 1834 1396.17 1834 M1396.17 1830.3 Q1401.98 1830.3 1405.04 1834.9 Q1408.11 1839.49 1408.11 1848.24 Q1408.11 1856.96 1405.04 1861.57 Q1401.98 1866.15 1396.17 1866.15 Q1390.36 1866.15 1387.28 1861.57 Q1384.23 1856.96 1384.23 1848.24 Q1384.23 1839.49 1387.28 1834.9 Q1390.36 1830.3 1396.17 1830.3 Z" fill="#000000" fill-rule="nonzero" fill-opacity="1" /><path clip-path="url(#clip580)" d="M1416.33 1859.6 L1421.22 1859.6 L1421.22 1865.48 L1416.33 1865.48 L1416.33 1859.6 Z" fill="#000000" fill-rule="nonzero" fill-opacity="1" /><path clip-path="url(#clip580)" d="M1441.4 1834 Q1437.79 1834 1435.96 1837.57 Q1434.16 1841.11 1434.16 1848.24 Q1434.16 1855.34 1435.96 1858.91 Q1437.79 1862.45 1441.4 1862.45 Q1445.04 1862.45 1446.84 1858.91 Q1448.67 1855.34 1448.67 1848.24 Q1448.67 1841.11 1446.84 1837.57 Q1445.04 1834 1441.4 1834 M1441.4 1830.3 Q1447.21 1830.3 1450.27 1834.9 Q1453.35 1839.49 1453.35 1848.24 Q1453.35 1856.96 1450.27 1861.57 Q1447.21 1866.15 1441.4 1866.15 Q1435.59 1866.15 1432.51 1861.57 Q1429.46 1856.96 1429.46 1848.24 Q1429.46 1839.49 1432.51 1834.9 Q1435.59 1830.3 1441.4 1830.3 Z" fill="#000000" fill-rule="nonzero" fill-opacity="1" /><path clip-path="url(#clip580)" d="M1973.09 1834 Q1969.48 1834 1967.65 1837.57 Q1965.84 1841.11 1965.84 1848.24 Q1965.84 1855.34 1967.65 1858.91 Q1969.48 1862.45 1973.09 1862.45 Q1976.72 1862.45 1978.53 1858.91 Q1980.36 1855.34 1980.36 1848.24 Q1980.36 1841.11 1978.53 1837.57 Q1976.72 1834 1973.09 1834 M1973.09 1830.3 Q1978.9 1830.3 1981.95 1834.9 Q1985.03 1839.49 1985.03 1848.24 Q1985.03 1856.96 1981.95 1861.57 Q1978.9 1866.15 1973.09 1866.15 Q1967.28 1866.15 1964.2 1861.57 Q1961.14 1856.96 1961.14 1848.24 Q1961.14 1839.49 1964.2 1834.9 Q1967.28 1830.3 1973.09 1830.3 Z" fill="#000000" fill-rule="nonzero" fill-opacity="1" /><path clip-path="url(#clip580)" d="M1993.25 1859.6 L1998.13 1859.6 L1998.13 1865.48 L1993.25 1865.48 L1993.25 1859.6 Z" fill="#000000" fill-rule="nonzero" fill-opacity="1" /><path clip-path="url(#clip580)" d="M2008.36 1830.92 L2026.72 1830.92 L2026.72 1834.86 L2012.65 1834.86 L2012.65 1843.33 Q2013.67 1842.98 2014.68 1842.82 Q2015.7 1842.64 2016.72 1842.64 Q2022.51 1842.64 2025.89 1845.81 Q2029.27 1848.98 2029.27 1854.4 Q2029.27 1859.97 2025.79 1863.08 Q2022.32 1866.15 2016 1866.15 Q2013.83 1866.15 2011.56 1865.78 Q2009.31 1865.41 2006.91 1864.67 L2006.91 1859.97 Q2008.99 1861.11 2011.21 1861.66 Q2013.43 1862.22 2015.91 1862.22 Q2019.92 1862.22 2022.25 1860.11 Q2024.59 1858.01 2024.59 1854.4 Q2024.59 1850.78 2022.25 1848.68 Q2019.92 1846.57 2015.91 1846.57 Q2014.04 1846.57 2012.16 1846.99 Q2010.31 1847.4 2008.36 1848.28 L2008.36 1830.92 Z" fill="#000000" fill-rule="nonzero" fill-opacity="1" /><path clip-path="url(#clip580)" d="M2538.78 1861.55 L2546.42 1861.55 L2546.42 1835.18 L2538.11 1836.85 L2538.11 1832.59 L2546.37 1830.92 L2551.05 1830.92 L2551.05 1861.55 L2558.68 1861.55 L2558.68 1865.48 L2538.78 1865.48 L2538.78 1861.55 Z" fill="#000000" fill-rule="nonzero" fill-opacity="1" /><path clip-path="url(#clip580)" d="M2568.13 1859.6 L2573.01 1859.6 L2573.01 1865.48 L2568.13 1865.48 L2568.13 1859.6 Z" fill="#000000" fill-rule="nonzero" fill-opacity="1" /><path clip-path="url(#clip580)" d="M2593.2 1834 Q2589.59 1834 2587.76 1837.57 Q2585.95 1841.11 2585.95 1848.24 Q2585.95 1855.34 2587.76 1858.91 Q2589.59 1862.45 2593.2 1862.45 Q2596.83 1862.45 2598.64 1858.91 Q2600.47 1855.34 2600.47 1848.24 Q2600.47 1841.11 2598.64 1837.57 Q2596.83 1834 2593.2 1834 M2593.2 1830.3 Q2599.01 1830.3 2602.06 1834.9 Q2605.14 1839.49 2605.14 1848.24 Q2605.14 1856.96 2602.06 1861.57 Q2599.01 1866.15 2593.2 1866.15 Q2587.39 1866.15 2584.31 1861.57 Q2581.25 1856.96 2581.25 1848.24 Q2581.25 1839.49 2584.31 1834.9 Q2587.39 1830.3 2593.2 1830.3 Z" fill="#000000" fill-rule="nonzero" fill-opacity="1" /><polyline clip-path="url(#clip582)" style="stroke:#000000; stroke-linecap:round; stroke-linejoin:round; stroke-width:2; stroke-opacity:0.1; fill:none" points="196.816,1751.18 2640.76,1751.18 "/>
<polyline clip-path="url(#clip582)" style="stroke:#000000; stroke-linecap:round; stroke-linejoin:round; stroke-width:2; stroke-opacity:0.1; fill:none" points="196.816,1337.59 2640.76,1337.59 "/>
<polyline clip-path="url(#clip582)" style="stroke:#000000; stroke-linecap:round; stroke-linejoin:round; stroke-width:2; stroke-opacity:0.1; fill:none" points="196.816,924.012 2640.76,924.012 "/>
<polyline clip-path="url(#clip582)" style="stroke:#000000; stroke-linecap:round; stroke-linejoin:round; stroke-width:2; stroke-opacity:0.1; fill:none" points="196.816,510.429 2640.76,510.429 "/>
<polyline clip-path="url(#clip582)" style="stroke:#000000; stroke-linecap:round; stroke-linejoin:round; stroke-width:2; stroke-opacity:0.1; fill:none" points="196.816,96.8467 2640.76,96.8467 "/>
<polyline clip-path="url(#clip580)" style="stroke:#000000; stroke-linecap:round; stroke-linejoin:round; stroke-width:4; stroke-opacity:1; fill:none" points="196.816,1800.78 196.816,47.2441 "/>
<polyline clip-path="url(#clip580)" style="stroke:#000000; stroke-linecap:round; stroke-linejoin:round; stroke-width:4; stroke-opacity:1; fill:none" points="196.816,1751.18 215.714,1751.18 "/>
<polyline clip-path="url(#clip580)" style="stroke:#000000; stroke-linecap:round; stroke-linejoin:round; stroke-width:4; stroke-opacity:1; fill:none" points="196.816,1337.59 215.714,1337.59 "/>
<polyline clip-path="url(#clip580)" style="stroke:#000000; stroke-linecap:round; stroke-linejoin:round; stroke-width:4; stroke-opacity:1; fill:none" points="196.816,924.012 215.714,924.012 "/>
<polyline clip-path="url(#clip580)" style="stroke:#000000; stroke-linecap:round; stroke-linejoin:round; stroke-width:4; stroke-opacity:1; fill:none" points="196.816,510.429 215.714,510.429 "/>
<polyline clip-path="url(#clip580)" style="stroke:#000000; stroke-linecap:round; stroke-linejoin:round; stroke-width:4; stroke-opacity:1; fill:none" points="196.816,96.8467 215.714,96.8467 "/>
<path clip-path="url(#clip580)" d="M49.5521 1751.63 L79.2279 1751.63 L79.2279 1755.56 L49.5521 1755.56 L49.5521 1751.63 Z" fill="#000000" fill-rule="nonzero" fill-opacity="1" /><path clip-path="url(#clip580)" d="M90.1306 1764.52 L97.7695 1764.52 L97.7695 1738.16 L89.4593 1739.82 L89.4593 1735.56 L97.7232 1733.9 L102.399 1733.9 L102.399 1764.52 L110.038 1764.52 L110.038 1768.46 L90.1306 1768.46 L90.1306 1764.52 Z" fill="#000000" fill-rule="nonzero" fill-opacity="1" /><path clip-path="url(#clip580)" d="M119.482 1762.58 L124.367 1762.58 L124.367 1768.46 L119.482 1768.46 L119.482 1762.58 Z" fill="#000000" fill-rule="nonzero" fill-opacity="1" /><path clip-path="url(#clip580)" d="M144.552 1736.98 Q140.941 1736.98 139.112 1740.54 Q137.306 1744.08 137.306 1751.21 Q137.306 1758.32 139.112 1761.88 Q140.941 1765.42 144.552 1765.42 Q148.186 1765.42 149.991 1761.88 Q151.82 1758.32 151.82 1751.21 Q151.82 1744.08 149.991 1740.54 Q148.186 1736.98 144.552 1736.98 M144.552 1733.27 Q150.362 1733.27 153.417 1737.88 Q156.496 1742.46 156.496 1751.21 Q156.496 1759.94 153.417 1764.54 Q150.362 1769.13 144.552 1769.13 Q138.741 1769.13 135.663 1764.54 Q132.607 1759.94 132.607 1751.21 Q132.607 1742.46 135.663 1737.88 Q138.741 1733.27 144.552 1733.27 Z" fill="#000000" fill-rule="nonzero" fill-opacity="1" /><path clip-path="url(#clip580)" d="M50.5475 1338.05 L80.2233 1338.05 L80.2233 1341.98 L50.5475 1341.98 L50.5475 1338.05 Z" fill="#000000" fill-rule="nonzero" fill-opacity="1" /><path clip-path="url(#clip580)" d="M100.316 1323.39 Q96.7047 1323.39 94.876 1326.96 Q93.0704 1330.5 93.0704 1337.63 Q93.0704 1344.74 94.876 1348.3 Q96.7047 1351.84 100.316 1351.84 Q103.95 1351.84 105.756 1348.3 Q107.584 1344.74 107.584 1337.63 Q107.584 1330.5 105.756 1326.96 Q103.95 1323.39 100.316 1323.39 M100.316 1319.69 Q106.126 1319.69 109.181 1324.3 Q112.26 1328.88 112.26 1337.63 Q112.26 1346.36 109.181 1350.96 Q106.126 1355.55 100.316 1355.55 Q94.5056 1355.55 91.4269 1350.96 Q88.3714 1346.36 88.3714 1337.63 Q88.3714 1328.88 91.4269 1324.3 Q94.5056 1319.69 100.316 1319.69 Z" fill="#000000" fill-rule="nonzero" fill-opacity="1" /><path clip-path="url(#clip580)" d="M120.478 1348.99 L125.362 1348.99 L125.362 1354.87 L120.478 1354.87 L120.478 1348.99 Z" fill="#000000" fill-rule="nonzero" fill-opacity="1" /><path clip-path="url(#clip580)" d="M135.593 1320.31 L153.95 1320.31 L153.95 1324.25 L139.876 1324.25 L139.876 1332.72 Q140.894 1332.37 141.913 1332.21 Q142.931 1332.03 143.95 1332.03 Q149.737 1332.03 153.116 1335.2 Q156.496 1338.37 156.496 1343.79 Q156.496 1349.36 153.024 1352.47 Q149.552 1355.55 143.232 1355.55 Q141.056 1355.55 138.788 1355.18 Q136.542 1354.8 134.135 1354.06 L134.135 1349.36 Q136.218 1350.5 138.441 1351.05 Q140.663 1351.61 143.14 1351.61 Q147.144 1351.61 149.482 1349.5 Q151.82 1347.4 151.82 1343.79 Q151.82 1340.18 149.482 1338.07 Q147.144 1335.96 143.14 1335.96 Q141.265 1335.96 139.39 1336.38 Q137.538 1336.8 135.593 1337.68 L135.593 1320.31 Z" fill="#000000" fill-rule="nonzero" fill-opacity="1" /><path clip-path="url(#clip580)" d="M99.3204 909.81 Q95.7093 909.81 93.8806 913.375 Q92.075 916.917 92.075 924.046 Q92.075 931.153 93.8806 934.718 Q95.7093 938.259 99.3204 938.259 Q102.955 938.259 104.76 934.718 Q106.589 931.153 106.589 924.046 Q106.589 916.917 104.76 913.375 Q102.955 909.81 99.3204 909.81 M99.3204 906.107 Q105.131 906.107 108.186 910.713 Q111.265 915.296 111.265 924.046 Q111.265 932.773 108.186 937.38 Q105.131 941.963 99.3204 941.963 Q93.5102 941.963 90.4315 937.38 Q87.376 932.773 87.376 924.046 Q87.376 915.296 90.4315 910.713 Q93.5102 906.107 99.3204 906.107 Z" fill="#000000" fill-rule="nonzero" fill-opacity="1" /><path clip-path="url(#clip580)" d="M119.482 935.412 L124.367 935.412 L124.367 941.292 L119.482 941.292 L119.482 935.412 Z" fill="#000000" fill-rule="nonzero" fill-opacity="1" /><path clip-path="url(#clip580)" d="M144.552 909.81 Q140.941 909.81 139.112 913.375 Q137.306 916.917 137.306 924.046 Q137.306 931.153 139.112 934.718 Q140.941 938.259 144.552 938.259 Q148.186 938.259 149.991 934.718 Q151.82 931.153 151.82 924.046 Q151.82 916.917 149.991 913.375 Q148.186 909.81 144.552 909.81 M144.552 906.107 Q150.362 906.107 153.417 910.713 Q156.496 915.296 156.496 924.046 Q156.496 932.773 153.417 937.38 Q150.362 941.963 144.552 941.963 Q138.741 941.963 135.663 937.38 Q132.607 932.773 132.607 924.046 Q132.607 915.296 135.663 910.713 Q138.741 906.107 144.552 906.107 Z" fill="#000000" fill-rule="nonzero" fill-opacity="1" /><path clip-path="url(#clip580)" d="M100.316 496.228 Q96.7047 496.228 94.876 499.793 Q93.0704 503.334 93.0704 510.464 Q93.0704 517.57 94.876 521.135 Q96.7047 524.677 100.316 524.677 Q103.95 524.677 105.756 521.135 Q107.584 517.57 107.584 510.464 Q107.584 503.334 105.756 499.793 Q103.95 496.228 100.316 496.228 M100.316 492.524 Q106.126 492.524 109.181 497.131 Q112.26 501.714 112.26 510.464 Q112.26 519.191 109.181 523.797 Q106.126 528.38 100.316 528.38 Q94.5056 528.38 91.4269 523.797 Q88.3714 519.191 88.3714 510.464 Q88.3714 501.714 91.4269 497.131 Q94.5056 492.524 100.316 492.524 Z" fill="#000000" fill-rule="nonzero" fill-opacity="1" /><path clip-path="url(#clip580)" d="M120.478 521.83 L125.362 521.83 L125.362 527.709 L120.478 527.709 L120.478 521.83 Z" fill="#000000" fill-rule="nonzero" fill-opacity="1" /><path clip-path="url(#clip580)" d="M135.593 493.149 L153.95 493.149 L153.95 497.084 L139.876 497.084 L139.876 505.557 Q140.894 505.209 141.913 505.047 Q142.931 504.862 143.95 504.862 Q149.737 504.862 153.116 508.033 Q156.496 511.205 156.496 516.621 Q156.496 522.2 153.024 525.302 Q149.552 528.38 143.232 528.38 Q141.056 528.38 138.788 528.01 Q136.542 527.64 134.135 526.899 L134.135 522.2 Q136.218 523.334 138.441 523.89 Q140.663 524.445 143.14 524.445 Q147.144 524.445 149.482 522.339 Q151.82 520.232 151.82 516.621 Q151.82 513.01 149.482 510.904 Q147.144 508.797 143.14 508.797 Q141.265 508.797 139.39 509.214 Q137.538 509.631 135.593 510.51 L135.593 493.149 Z" fill="#000000" fill-rule="nonzero" fill-opacity="1" /><path clip-path="url(#clip580)" d="M90.1306 110.192 L97.7695 110.192 L97.7695 83.8259 L89.4593 85.4926 L89.4593 81.2333 L97.7232 79.5667 L102.399 79.5667 L102.399 110.192 L110.038 110.192 L110.038 114.127 L90.1306 114.127 L90.1306 110.192 Z" fill="#000000" fill-rule="nonzero" fill-opacity="1" /><path clip-path="url(#clip580)" d="M119.482 108.247 L124.367 108.247 L124.367 114.127 L119.482 114.127 L119.482 108.247 Z" fill="#000000" fill-rule="nonzero" fill-opacity="1" /><path clip-path="url(#clip580)" d="M144.552 82.6454 Q140.941 82.6454 139.112 86.2102 Q137.306 89.7518 137.306 96.8814 Q137.306 103.988 139.112 107.553 Q140.941 111.094 144.552 111.094 Q148.186 111.094 149.991 107.553 Q151.82 103.988 151.82 96.8814 Q151.82 89.7518 149.991 86.2102 Q148.186 82.6454 144.552 82.6454 M144.552 78.9417 Q150.362 78.9417 153.417 83.5481 Q156.496 88.1314 156.496 96.8814 Q156.496 105.608 153.417 110.215 Q150.362 114.798 144.552 114.798 Q138.741 114.798 135.663 110.215 Q132.607 105.608 132.607 96.8814 Q132.607 88.1314 135.663 83.5481 Q138.741 78.9417 144.552 78.9417 Z" fill="#000000" fill-rule="nonzero" fill-opacity="1" /><path clip-path="url(#clip582)" d="M1418.79 924.012 L1455.18 819.822 L1491.54 717.292 L1527.82 618.056 L1564 523.692 L1600.03 435.706 L1635.88 355.498 L1671.51 284.346 L1706.9 223.383 L1741.99 173.581 L1776.76 135.733 L1811.18 110.441 L1845.2 98.109 L1878.8 98.9331 L1911.94 112.9 L1944.59 139.787 L1976.72 179.167 L2008.29 230.411 L2039.27 292.704 L2069.63 365.053 L2099.35 446.306 L2128.38 535.169 L2156.71 630.225 L2184.31 729.962 L2211.14 832.789 L2237.18 937.07 L2262.4 1041.14 L2286.78 1143.35 L2310.3 1242.06 L2332.93 1335.71 L2354.65 1422.8 L2375.44 1501.94 L2395.27 1571.88 L2414.13 1631.49 L2431.99 1679.84 L2448.85 1716.15 L2464.68 1739.84 L2479.46 1750.53 L2493.19 1748.06 L2505.85 1732.46 L2517.43 1703.99 L2527.91 1663.08 L2537.28 1610.41 L2545.54 1546.8 L2552.68 1473.28 L2558.68 1391 L2563.55 1301.28 L2567.28 1205.55 L2569.86 1105.34 L2571.3 1002.24 L2571.59 897.899 L2570.73 793.97 L2568.72 692.112 L2565.56 593.948 L2561.26 501.041 L2555.82 414.872 L2549.25 336.814 L2541.55 268.109 L2532.73 209.852 L2522.81 162.971 L2511.78 128.213 L2499.66 106.132 L2486.46 97.0786 L2472.2 101.198 L2456.89 118.424 L2440.55 148.482 L2423.18 190.894 L2404.82 244.985 L2385.47 309.891 L2365.16 384.58 L2343.91 467.862 L2321.73 558.41 L2298.65 654.782 L2274.7 755.442 L2249.89 858.788 L2224.26 963.172 L2197.82 1066.93 L2170.6 1168.42 L2142.64 1266.01 L2113.95 1358.15 L2084.57 1443.38 L2054.53 1520.33 L2023.86 1587.79 L1992.58 1644.67 L1960.72 1690.07 L1928.33 1723.27 L1895.43 1743.74 L1862.06 1751.15 L1828.24 1745.39 L1794.02 1726.54 L1759.42 1694.9 L1724.48 1650.99 L1689.24 1595.5 L1653.73 1529.31 L1617.98 1453.48 L1582.03 1369.21 L1545.92 1277.85 L1509.69 1180.86 L1473.36 1079.78 L1436.98 976.21 L1400.59 871.813 L1364.21 768.247 L1327.88 667.162 L1291.65 570.169 L1255.54 478.812 L1219.59 394.546 L1183.85 318.715 L1148.33 252.526 L1113.09 197.033 L1078.15 153.12 L1043.55 121.487 L1009.33 102.638 L975.513 96.8724 L942.138 104.283 L909.239 124.751 L876.847 157.95 L844.996 203.353 L813.717 260.235 L783.04 327.69 L752.998 404.645 L723.619 489.872 L694.933 582.015 L666.969 679.606 L639.754 781.09 L613.315 884.851 L587.68 989.236 L562.873 1092.58 L538.919 1193.24 L515.842 1289.61 L493.666 1380.16 L472.411 1463.44 L452.1 1538.13 L432.753 1603.04 L414.388 1657.13 L397.025 1699.54 L380.68 1729.6 L365.37 1746.83 L351.11 1750.94 L337.914 1741.89 L325.796 1719.81 L314.767 1685.05 L304.839 1638.17 L296.021 1579.91 L288.322 1511.21 L281.75 1433.15 L276.312 1346.98 L272.012 1254.08 L268.856 1155.91 L266.846 1054.05 L265.984 950.124 L266.271 845.779 L267.708 742.679 L270.291 642.468 L274.02 546.742 L278.889 457.026 L284.895 374.748 L292.031 301.22 L300.29 237.612 L309.665 184.939 L320.144 144.038 L331.719 115.561 L344.378 99.9628 L358.107 97.4908 L372.894 108.185 L388.724 131.874 L405.58 168.182 L423.446 216.529 L442.305 276.147 L462.136 346.084 L482.922 425.227 L504.64 512.315 L527.27 605.962 L550.788 704.675 L575.171 806.881 L600.396 910.954 L626.436 1015.23 L653.266 1118.06 L680.859 1217.8 L709.188 1312.85 L738.224 1401.72 L767.938 1482.97 L798.301 1555.32 L829.283 1617.61 L860.852 1668.86 L892.978 1708.24 L925.627 1735.12 L958.768 1749.09 L992.368 1749.91 L1026.39 1737.58 L1060.81 1712.29 L1095.58 1674.44 L1130.68 1624.64 L1166.06 1563.68 L1201.69 1492.53 L1237.54 1412.32 L1273.57 1324.33 L1309.75 1229.97 L1346.04 1130.73 L1382.39 1028.2 L1418.79 924.012 L1418.79 924.012 L1382.39 924.012 L1346.04 924.012 L1309.75 924.012 L1273.57 924.012 L1237.54 924.012 L1201.69 924.012 L1166.06 924.012 L1130.68 924.012 L1095.58 924.012 L1060.81 924.012 L1026.39 924.012 L992.368 924.012 L958.768 924.012 L925.627 924.012 L892.978 924.012 L860.852 924.012 L829.283 924.012 L798.301 924.012 L767.938 924.012 L738.224 924.012 L709.188 924.012 L680.859 924.012 L653.266 924.012 L626.436 924.012 L600.396 924.012 L575.171 924.012 L550.788 924.012 L527.27 924.012 L504.64 924.012 L482.922 924.012 L462.136 924.012 L442.305 924.012 L423.446 924.012 L405.58 924.012 L388.724 924.012 L372.894 924.012 L358.107 924.012 L344.378 924.012 L331.719 924.012 L320.144 924.012 L309.665 924.012 L300.29 924.012 L292.031 924.012 L284.895 924.012 L278.889 924.012 L274.02 924.012 L270.291 924.012 L267.708 924.012 L266.271 924.012 L265.984 924.012 L266.846 924.012 L268.856 924.012 L272.012 924.012 L276.312 924.012 L281.75 924.012 L288.322 924.012 L296.021 924.012 L304.839 924.012 L314.767 924.012 L325.796 924.012 L337.914 924.012 L351.11 924.012 L365.37 924.012 L380.68 924.012 L397.025 924.012 L414.388 924.012 L432.753 924.012 L452.1 924.012 L472.411 924.012 L493.666 924.012 L515.842 924.012 L538.919 924.012 L562.873 924.012 L587.68 924.012 L613.315 924.012 L639.754 924.012 L666.969 924.012 L694.933 924.012 L723.619 924.012 L752.998 924.012 L783.04 924.012 L813.717 924.012 L844.996 924.012 L876.847 924.012 L909.239 924.012 L942.138 924.012 L975.513 924.012 L1009.33 924.012 L1043.55 924.012 L1078.15 924.012 L1113.09 924.012 L1148.33 924.012 L1183.85 924.012 L1219.59 924.012 L1255.54 924.012 L1291.65 924.012 L1327.88 924.012 L1364.21 924.012 L1400.59 924.012 L1436.98 924.012 L1473.36 924.012 L1509.69 924.012 L1545.92 924.012 L1582.03 924.012 L1617.98 924.012 L1653.73 924.012 L1689.24 924.012 L1724.48 924.012 L1759.42 924.012 L1794.02 924.012 L1828.24 924.012 L1862.06 924.012 L1895.43 924.012 L1928.33 924.012 L1960.72 924.012 L1992.58 924.012 L2023.86 924.012 L2054.53 924.012 L2084.57 924.012 L2113.95 924.012 L2142.64 924.012 L2170.6 924.012 L2197.82 924.012 L2224.26 924.012 L2249.89 924.012 L2274.7 924.012 L2298.65 924.012 L2321.73 924.012 L2343.91 924.012 L2365.16 924.012 L2385.47 924.012 L2404.82 924.012 L2423.18 924.012 L2440.55 924.012 L2456.89 924.012 L2472.2 924.012 L2486.46 924.012 L2499.66 924.012 L2511.78 924.012 L2522.81 924.012 L2532.73 924.012 L2541.55 924.012 L2549.25 924.012 L2555.82 924.012 L2561.26 924.012 L2565.56 924.012 L2568.72 924.012 L2570.73 924.012 L2571.59 924.012 L2571.3 924.012 L2569.86 924.012 L2567.28 924.012 L2563.55 924.012 L2558.68 924.012 L2552.68 924.012 L2545.54 924.012 L2537.28 924.012 L2527.91 924.012 L2517.43 924.012 L2505.85 924.012 L2493.19 924.012 L2479.46 924.012 L2464.68 924.012 L2448.85 924.012 L2431.99 924.012 L2414.13 924.012 L2395.27 924.012 L2375.44 924.012 L2354.65 924.012 L2332.93 924.012 L2310.3 924.012 L2286.78 924.012 L2262.4 924.012 L2237.18 924.012 L2211.14 924.012 L2184.31 924.012 L2156.71 924.012 L2128.38 924.012 L2099.35 924.012 L2069.63 924.012 L2039.27 924.012 L2008.29 924.012 L1976.72 924.012 L1944.59 924.012 L1911.94 924.012 L1878.8 924.012 L1845.2 924.012 L1811.18 924.012 L1776.76 924.012 L1741.99 924.012 L1706.9 924.012 L1671.51 924.012 L1635.88 924.012 L1600.03 924.012 L1564 924.012 L1527.82 924.012 L1491.54 924.012 L1455.18 924.012 L1418.79 924.012  Z" fill="#ffc0cb" fill-rule="evenodd" fill-opacity="1"/>
<polyline clip-path="url(#clip582)" style="stroke:#009af9; stroke-linecap:round; stroke-linejoin:round; stroke-width:4; stroke-opacity:1; fill:none" points="1418.79,924.012 1455.18,819.822 1491.54,717.292 1527.82,618.056 1564,523.692 1600.03,435.706 1635.88,355.498 1671.51,284.346 1706.9,223.383 1741.99,173.581 1776.76,135.733 1811.18,110.441 1845.2,98.109 1878.8,98.9331 1911.94,112.9 1944.59,139.787 1976.72,179.167 2008.29,230.411 2039.27,292.704 2069.63,365.053 2099.35,446.306 2128.38,535.169 2156.71,630.225 2184.31,729.962 2211.14,832.789 2237.18,937.07 2262.4,1041.14 2286.78,1143.35 2310.3,1242.06 2332.93,1335.71 2354.65,1422.8 2375.44,1501.94 2395.27,1571.88 2414.13,1631.49 2431.99,1679.84 2448.85,1716.15 2464.68,1739.84 2479.46,1750.53 2493.19,1748.06 2505.85,1732.46 2517.43,1703.99 2527.91,1663.08 2537.28,1610.41 2545.54,1546.8 2552.68,1473.28 2558.68,1391 2563.55,1301.28 2567.28,1205.55 2569.86,1105.34 2571.3,1002.24 2571.59,897.899 2570.73,793.97 2568.72,692.112 2565.56,593.948 2561.26,501.041 2555.82,414.872 2549.25,336.814 2541.55,268.109 2532.73,209.852 2522.81,162.971 2511.78,128.213 2499.66,106.132 2486.46,97.0786 2472.2,101.198 2456.89,118.424 2440.55,148.482 2423.18,190.894 2404.82,244.985 2385.47,309.891 2365.16,384.58 2343.91,467.862 2321.73,558.41 2298.65,654.782 2274.7,755.442 2249.89,858.788 2224.26,963.172 2197.82,1066.93 2170.6,1168.42 2142.64,1266.01 2113.95,1358.15 2084.57,1443.38 2054.53,1520.33 2023.86,1587.79 1992.58,1644.67 1960.72,1690.07 1928.33,1723.27 1895.43,1743.74 1862.06,1751.15 1828.24,1745.39 1794.02,1726.54 1759.42,1694.9 1724.48,1650.99 1689.24,1595.5 1653.73,1529.31 1617.98,1453.48 1582.03,1369.21 1545.92,1277.85 1509.69,1180.86 1473.36,1079.78 1436.98,976.21 1400.59,871.813 1364.21,768.247 1327.88,667.162 1291.65,570.169 1255.54,478.812 1219.59,394.546 1183.85,318.715 1148.33,252.526 1113.09,197.033 1078.15,153.12 1043.55,121.487 1009.33,102.638 975.513,96.8724 942.138,104.283 909.239,124.751 876.847,157.95 844.996,203.353 813.717,260.235 783.04,327.69 752.998,404.645 723.619,489.872 694.933,582.015 666.969,679.606 639.754,781.09 613.315,884.851 587.68,989.236 562.873,1092.58 538.919,1193.24 515.842,1289.61 493.666,1380.16 472.411,1463.44 452.1,1538.13 432.753,1603.04 414.388,1657.13 397.025,1699.54 380.68,1729.6 365.37,1746.83 351.11,1750.94 337.914,1741.89 325.796,1719.81 314.767,1685.05 304.839,1638.17 296.021,1579.91 288.322,1511.21 281.75,1433.15 276.312,1346.98 272.012,1254.08 268.856,1155.91 266.846,1054.05 265.984,950.124 266.271,845.779 267.708,742.679 270.291,642.468 274.02,546.742 278.889,457.026 284.895,374.748 292.031,301.22 300.29,237.612 309.665,184.939 320.144,144.038 331.719,115.561 344.378,99.9628 358.107,97.4908 372.894,108.185 388.724,131.874 405.58,168.182 423.446,216.529 442.305,276.147 462.136,346.084 482.922,425.227 504.64,512.315 527.27,605.962 550.788,704.675 575.171,806.881 600.396,910.954 626.436,1015.23 653.266,1118.06 680.859,1217.8 709.188,1312.85 738.224,1401.72 767.938,1482.97 798.301,1555.32 829.283,1617.61 860.852,1668.86 892.978,1708.24 925.627,1735.12 958.768,1749.09 992.368,1749.91 1026.39,1737.58 1060.81,1712.29 1095.58,1674.44 1130.68,1624.64 1166.06,1563.68 1201.69,1492.53 1237.54,1412.32 1273.57,1324.33 1309.75,1229.97 1346.04,1130.73 1382.39,1028.2 1418.79,924.012 "/>
</svg>
